<svg width="50" height="46" viewBox="0 0 50 46" fill="none" xmlns="http://www.w3.org/2000/svg">
<rect width="50" height="46" rx="3" fill="#F1EF64"/>
<mask id="mask0_835_32" style="mask-type:alpha" maskUnits="userSpaceOnUse" x="0" y="0" width="50" height="46">
<rect width="50" height="46" rx="3" fill="#060606"/>
</mask>
<g mask="url(#mask0_835_32)">
<path fill-rule="evenodd" clip-rule="evenodd" d="M-2 6.33333C-2 4.1232 -1.12473 2.00358 0.433267 0.440777C1.99126 -1.12203 4.10436 -2 6.30769 -2H43.6923C45.8956 -2 48.0087 -1.12203 49.5667 0.440777C51.1247 2.00358 52 4.1232 52 6.33333V39.6667C52 41.8768 51.1247 43.9964 49.5667 45.5592C48.0087 47.122 45.8956 48 43.6923 48H6.30769C4.10436 48 1.99126 47.122 0.433267 45.5592C-1.12473 43.9964 -2 41.8768 -2 39.6667V6.33333ZM8.99385 9.02778C9.38327 8.63764 9.91115 8.4185 10.4615 8.4185C11.0119 8.4185 11.5398 8.63764 11.9292 9.02778L18.16 15.2778C18.5489 15.6684 18.7674 16.1979 18.7674 16.75C18.7674 17.3021 18.5489 17.8316 18.16 18.2222L11.9292 24.4722C11.5355 24.8402 11.0148 25.0406 10.4767 25.031C9.93864 25.0215 9.42527 24.8029 9.04474 24.4212C8.66421 24.0395 8.44624 23.5245 8.43675 22.9848C8.42725 22.4451 8.62698 21.9227 8.99385 21.5278L13.7569 16.75L8.99385 11.9722C8.60491 11.5816 8.38644 11.0521 8.38644 10.5C8.38644 9.94791 8.60491 9.4184 8.99385 9.02778ZM20.8462 20.9167C20.2953 20.9167 19.767 21.1362 19.3775 21.5269C18.9881 21.9176 18.7692 22.4475 18.7692 23C18.7692 23.5525 18.9881 24.0824 19.3775 24.4731C19.767 24.8638 20.2953 25.0833 20.8462 25.0833H29.1538C29.7047 25.0833 30.233 24.8638 30.6225 24.4731C31.012 24.0824 31.2308 23.5525 31.2308 23C31.2308 22.4475 31.012 21.9176 30.6225 21.5269C30.233 21.1362 29.7047 20.9167 29.1538 20.9167H20.8462Z" fill="black"/>
</g>
</svg>
